<!-- Generated by IcoMoon.io -->
<svg version="1.1" xmlns="http://www.w3.org/2000/svg" width="32" height="32" viewBox="0 0 32 32">
<path d="M29.968 8.192l-0.224-0.4c-0.289-0.484-0.697-0.886-1.184-1.168l-10.736-6.192c-0.486-0.282-1.038-0.431-1.6-0.432h-0.464c-0.562 0.001-1.114 0.15-1.6 0.432l-10.736 6.208c-0.485 0.28-0.888 0.683-1.168 1.168l-0.224 0.4c-0.282 0.486-0.431 1.038-0.432 1.6v12.4c0.001 0.562 0.15 1.114 0.432 1.6l0.224 0.4c0.288 0.479 0.689 0.88 1.168 1.168l10.752 6.192c0.484 0.288 1.037 0.437 1.6 0.432h0.448c0.562-0.001 1.114-0.15 1.6-0.432l10.736-6.208c0.49-0.274 0.894-0.678 1.168-1.168l0.24-0.4c0.279-0.488 0.427-1.038 0.432-1.6v-12.4c-0.001-0.562-0.15-1.114-0.432-1.6zM15.76 3.2h0.464l9.376 5.408-9.6 5.536-9.6-5.536 9.36-5.408zM17.6 28l9.36-5.408 0.24-0.4v-10.816l-9.6 5.552v11.072z"></path>
</svg>
