<!-- Generated by IcoMoon.io -->
<svg version="1.1" xmlns="http://www.w3.org/2000/svg" width="32" height="32" viewBox="0 0 32 32">
<path d="M16 19.2c3.53 0 6.4-2.87 6.4-6.4s-2.87-6.4-6.4-6.4c-3.53 0-6.4 2.87-6.4 6.4s2.87 6.4 6.4 6.4zM16 9.6c1.765 0 3.2 1.435 3.2 3.2s-1.435 3.2-3.2 3.2c-1.765 0-3.2-1.435-3.2-3.2s1.435-3.2 3.2-3.2z"></path>
<path d="M15.072 31.702c0.271 0.193 0.595 0.297 0.928 0.297s0.657-0.104 0.928-0.297c0.486-0.344 11.918-8.598 11.872-18.902 0-7.058-5.742-12.8-12.8-12.8s-12.8 5.742-12.8 12.792c-0.046 10.312 11.386 18.566 11.872 18.91zM16 3.2c5.294 0 9.6 4.306 9.6 9.608 0.034 7.101-7.021 13.477-9.6 15.568-2.578-2.093-9.634-8.47-9.6-15.576 0-5.294 4.306-9.6 9.6-9.6z"></path>
</svg>
