<!-- Generated by IcoMoon.io -->
<svg version="1.1" xmlns="http://www.w3.org/2000/svg" width="32" height="32" viewBox="0 0 32 32">
<path d="M24.77 17.336c-0.156-0.157-0.342-0.281-0.546-0.365s-0.423-0.128-0.645-0.128c-0.221 0-0.44 0.044-0.645 0.128s-0.39 0.209-0.546 0.365l-2.685 2.685c-1.245-0.371-3.567-1.213-5.039-2.685s-2.314-3.795-2.685-5.039l2.685-2.685c0.157-0.156 0.281-0.342 0.365-0.546s0.128-0.423 0.128-0.645c0-0.221-0.044-0.44-0.128-0.645s-0.209-0.39-0.365-0.546l-6.737-6.737c-0.156-0.157-0.342-0.281-0.546-0.365s-0.423-0.128-0.645-0.128c-0.221 0-0.44 0.044-0.645 0.128s-0.39 0.209-0.546 0.365l-4.568 4.568c-0.64 0.64-1 1.519-0.987 2.417 0.039 2.398 0.674 10.729 7.239 17.294s14.895 7.198 17.295 7.239h0.047c0.889 0 1.73-0.35 2.366-0.987l4.568-4.568c0.157-0.156 0.281-0.342 0.365-0.546s0.128-0.423 0.128-0.645c0-0.221-0.044-0.44-0.128-0.645s-0.209-0.39-0.365-0.546l-6.737-6.739zM24.556 28.64c-2.102-0.035-9.293-0.6-14.944-6.252-5.669-5.669-6.218-12.886-6.252-14.946l3.377-3.377 4.355 4.355-2.178 2.178c-0.198 0.198-0.344 0.442-0.423 0.71s-0.092 0.552-0.035 0.826c0.040 0.194 1.029 4.787 3.825 7.582s7.389 3.784 7.582 3.825c0.274 0.059 0.558 0.048 0.826-0.032s0.512-0.226 0.71-0.425l2.179-2.178 4.355 4.355-3.379 3.377z"></path>
</svg>
