<!-- Generated by IcoMoon.io -->
<svg version="1.1" xmlns="http://www.w3.org/2000/svg" width="32" height="32" viewBox="0 0 32 32">
<path fill="none" stroke-linejoin="miter" stroke-linecap="butt" stroke-miterlimit="4" stroke-width="1.6" stroke="#000" d="M15.25 2.091c0.275-0.654 1.225-0.654 1.5 0l3.245 7.709c0.349 0.83 1.137 1.392 2.033 1.463l8.425 0.667c0.732 0.058 0.994 0.936 0.466 1.384l-6.42 5.433c-0.687 0.582-0.991 1.5-0.78 2.376l1.963 8.122c0.159 0.659-0.579 1.238-1.216 0.853h-0.002l-7.211-4.352c-0.769-0.464-1.737-0.464-2.506 0l-7.213 4.352c-0.637 0.384-1.375-0.194-1.216-0.853l1.962-8.122c0.212-0.876-0.092-1.795-0.78-2.376l-6.42-5.433c-0.529-0.448-0.267-1.326 0.466-1.384l8.425-0.667c0.896-0.071 1.683-0.633 2.033-1.463l3.245-7.709z"></path>
</svg>
